<svg width="470" height="185" viewBox="0 0 470 185" fill="none" xmlns="http://www.w3.org/2000/svg">
<path fill-rule="evenodd" clip-rule="evenodd" d="M263.18 5.37599C254.476 1.792 244.919 0 234.508 0C223.927 0 214.284 1.792 205.58 5.37599C196.876 8.96 189.367 14.592 183.052 22.272C176.737 29.7813 171.873 39.3387 168.46 50.944C165.047 62.5493 163.34 76.3733 163.34 92.416C163.34 108.629 164.961 122.539 168.204 134.144C171.617 145.749 176.396 155.307 182.54 162.816C188.855 170.325 196.364 175.872 205.068 179.456C213.943 183.04 223.756 184.832 234.508 184.832C245.26 184.832 254.988 183.04 263.692 179.456C272.567 175.872 280.076 170.325 286.22 162.816C292.364 155.307 297.143 145.749 300.556 134.144C303.969 122.539 305.676 108.629 305.676 92.416C305.676 76.3733 303.884 62.5493 300.3 50.944C296.887 39.3387 292.023 29.7813 285.708 22.272C279.564 14.592 272.055 8.96 263.18 5.37599ZM469.908 117.76H449.428V2.304H405.396L324.5 123.904V149.76H413.076V183.552H449.428V149.76H469.908V117.76ZM413.076 117.76H366.74L413.076 45.056V117.76ZM124.928 117.76H145.408V149.76H124.928V183.552H88.576V149.76H0V123.904L80.896 2.304H124.928V117.76ZM42.24 117.76H88.576V45.056L42.24 117.76Z" fill="#002D82"/>
<mask id="mask0_1_5132" style="mask-type:alpha" maskUnits="userSpaceOnUse" x="0" y="0" width="470" height="185">
<path fill-rule="evenodd" clip-rule="evenodd" d="M263.18 5.37599C254.476 1.792 244.919 0 234.508 0C223.927 0 214.284 1.792 205.58 5.37599C196.876 8.96 189.367 14.592 183.052 22.272C176.737 29.7813 171.873 39.3387 168.46 50.944C165.047 62.5493 163.34 76.3733 163.34 92.416C163.34 108.629 164.961 122.539 168.204 134.144C171.617 145.749 176.396 155.307 182.54 162.816C188.855 170.325 196.364 175.872 205.068 179.456C213.943 183.04 223.756 184.832 234.508 184.832C245.26 184.832 254.988 183.04 263.692 179.456C272.567 175.872 280.076 170.325 286.22 162.816C292.364 155.307 297.143 145.749 300.556 134.144C303.969 122.539 305.676 108.629 305.676 92.416C305.676 76.3733 303.884 62.5493 300.3 50.944C296.887 39.3387 292.023 29.7813 285.708 22.272C279.564 14.592 272.055 8.96 263.18 5.37599ZM469.908 117.76H449.428V2.304H405.396L324.5 123.904V149.76H413.076V183.552H449.428V149.76H469.908V117.76ZM413.076 117.76H366.74L413.076 45.056V117.76ZM124.928 117.76H145.408V149.76H124.928V183.552H88.576V149.76H0V123.904L80.896 2.304H124.928V117.76ZM42.24 117.76H88.576V45.056L42.24 117.76Z" fill="#002D82"/>
</mask>
<g mask="url(#mask0_1_5132)">
<path d="M267.32 116.774C267.32 134.877 252.546 149.552 234.32 149.552C216.095 149.552 201.32 134.877 201.32 116.774C201.32 80.0631 229.04 31.552 234.32 31.552C239.6 31.552 267.32 80.0631 267.32 116.774Z" fill="#F2F2F8"/>
<path d="M256.984 130.138C260.984 122.638 260.484 114.138 257.984 113.638C251.984 112.438 250.984 124.138 248.484 128.138C245.984 132.138 237.984 137.138 240.984 139.638C243.984 142.138 252.984 137.638 256.984 130.138Z" fill="#002D82"/>
</g>
</svg>
