<svg width="180" height="159" viewBox="0 0 180 159" fill="none" xmlns="http://www.w3.org/2000/svg">
<path d="M149.363 8.61719C151.285 6.87347 154.256 7.01808 156 8.93945C170.378 24.7832 179.146 45.8296 179.146 68.9121C179.145 118.214 139.177 158.181 89.875 158.181C40.5729 158.18 0.605722 118.214 0.605469 68.9121C0.605469 45.8296 9.37295 24.7832 23.751 8.93945C25.4948 7.0181 28.4662 6.87348 30.3877 8.61719C32.3092 10.361 32.4527 13.3324 30.709 15.2539C17.8386 29.4363 10.002 48.254 10.002 68.9121C10.0022 113.024 45.7626 148.784 89.875 148.784C133.988 148.784 169.749 113.024 169.749 68.9121C169.749 48.254 161.912 29.4363 149.042 15.2539C147.298 13.3323 147.442 10.361 149.363 8.61719ZM135.292 28.1914C137.887 28.1914 139.991 30.2949 139.991 32.8896V113.3C139.991 123.067 128.182 127.958 121.275 121.052L90.9814 90.7578C90.3698 90.1463 89.3782 90.1462 88.7666 90.7578L58.4727 121.052C51.5664 127.958 39.758 123.066 39.7578 113.3V32.8896C39.7579 30.2949 41.8613 28.1915 44.4561 28.1914C47.0509 28.1914 49.1542 30.2949 49.1543 32.8896V113.3C49.1545 114.695 50.8415 115.394 51.8281 114.407L82.1221 84.1133C86.4033 79.8321 93.3447 79.8321 97.626 84.1133L127.92 114.407C128.906 115.394 130.594 114.695 130.594 113.3V32.8896C130.594 30.295 132.697 28.1916 135.292 28.1914ZM106.235 37.3447C111.157 32.3729 119.632 35.8579 119.632 42.8535V85.3525C119.632 87.9473 117.528 90.0507 114.934 90.0508C112.339 90.0508 110.235 87.9473 110.235 85.3525V46.6611L95.4404 61.6074C92.376 64.7032 87.374 64.7032 84.3096 61.6074L69.5156 46.6611V85.3525C69.5156 87.9472 67.412 90.0505 64.8174 90.0508C62.2226 90.0508 60.1182 87.9473 60.1182 85.3525V42.8535C60.1182 35.8579 68.5932 32.3729 73.5146 37.3447L89.875 53.8721L106.235 37.3447ZM136.422 0C137.441 0.000268504 138.188 0.957973 137.94 1.94629L135.592 11.3428C135.417 12.0399 134.791 12.5293 134.072 12.5293H94.5732V39.1523C94.5731 41.747 92.4698 43.8506 89.875 43.8506C87.2803 43.8505 85.1769 41.747 85.1768 39.1523V12.5293H40.9834C40.2648 12.5293 39.6382 12.0399 39.4639 11.3428L37.1143 1.94629C36.8672 0.957927 37.615 0.000178244 38.6338 0H136.422Z" fill="white"/>
</svg>
