<svg width="38" height="46" viewBox="0 0 38 46" fill="none" xmlns="http://www.w3.org/2000/svg">
<path d="M27.5 1V12.5H37V45H1V1H27.5ZM35.877 10.5H29.5V2.7793L35.877 10.5Z" stroke="#002D82" stroke-width="2"/>
<rect y="21.6465" width="38" height="16.2353" fill="#002D82"/>
<path d="M25.2012 35.1747V25.6094H31.7833V27.0164H26.7755V30.047H31.064V31.4406H26.7755V35.1747H25.2012Z" fill="white"/>
<path d="M15.3535 25.6094H18.8278C19.5878 25.6094 20.2573 25.7221 20.8364 25.9476C21.4245 26.1641 21.913 26.4798 22.3021 26.8947C22.7002 27.3006 22.9988 27.8011 23.1978 28.3964C23.3968 28.9917 23.4964 29.6592 23.4964 30.3988C23.4964 31.1474 23.3968 31.8149 23.1978 32.4011C22.9988 32.9874 22.7047 33.488 22.3157 33.9029C21.9357 34.3178 21.4561 34.6335 20.8771 34.85C20.3071 35.0664 19.6421 35.1747 18.8821 35.1747H15.3535V25.6094ZM16.9278 27.0164V33.7811H18.8414C19.3661 33.7811 19.8185 33.7 20.1985 33.5376C20.5785 33.3753 20.8907 33.1498 21.1349 32.8611C21.3883 32.5635 21.5738 32.2072 21.6914 31.7923C21.818 31.3774 21.8814 30.9129 21.8814 30.3988C21.8814 29.3345 21.619 28.5047 21.0942 27.9094C20.5785 27.3141 19.823 27.0164 18.8278 27.0164H16.9278Z" fill="white"/>
<path d="M6.54102 25.6094H10.056C10.6079 25.6094 11.101 25.6725 11.5353 25.7988C11.9786 25.916 12.3541 26.1055 12.6617 26.367C12.9784 26.6286 13.2182 26.9668 13.381 27.3817C13.5529 27.7876 13.6389 28.2792 13.6389 28.8564C13.6389 29.3886 13.5484 29.8621 13.3674 30.277C13.1955 30.6919 12.9467 31.0392 12.621 31.3188C12.3043 31.5984 11.9243 31.8104 11.481 31.9547C11.0377 32.099 10.5446 32.1711 10.0017 32.1711H8.1153V35.1747H6.54102V25.6094ZM9.9203 30.7911C10.5265 30.7911 11.0286 30.6423 11.4267 30.3447C11.8339 30.038 12.0465 29.5645 12.0646 28.9241C12.0646 28.2476 11.8882 27.7606 11.5353 27.4629C11.1915 27.1653 10.6848 27.0164 10.0153 27.0164H8.1153V30.7911H9.9203Z" fill="white"/>
</svg>
